<svg xmlns="http://www.w3.org/2000/svg" viewBox="0 0 800 600" fill="none">
  <defs>
    <linearGradient id="lensFill" x1="485" y1="96" x2="736" y2="376" gradientUnits="userSpaceOnUse">
      <stop stop-color="#F9F4F6" stop-opacity=".78"/>
      <stop offset=".48" stop-color="#BBA9C2" stop-opacity=".43"/>
      <stop offset="1" stop-color="#8E7799" stop-opacity=".16"/>
    </linearGradient>
    <linearGradient id="pinFill" x1="386" y1="199" x2="458" y2="346" gradientUnits="userSpaceOnUse">
      <stop stop-color="#9B83A7"/>
      <stop offset=".55" stop-color="#796287"/>
      <stop offset="1" stop-color="#5F486D"/>
    </linearGradient>
    <linearGradient id="routeStroke" x1="319" y1="482" x2="493" y2="284" gradientUnits="userSpaceOnUse">
      <stop stop-color="#A38CAF"/>
      <stop offset="1" stop-color="#70577E"/>
    </linearGradient>
    <radialGradient id="apertureGlow" cx="0" cy="0" r="1" gradientTransform="translate(633 238) rotate(90) scale(127)">
      <stop stop-color="#FFFDFC" stop-opacity=".94"/>
      <stop offset=".52" stop-color="#ECE2EA" stop-opacity=".62"/>
      <stop offset="1" stop-color="#A38EAD" stop-opacity=".15"/>
    </radialGradient>
    <pattern id="microDots" width="18" height="18" patternUnits="userSpaceOnUse">
      <circle cx="2" cy="2" r="1.15" fill="#715D7A" fill-opacity=".22"/>
    </pattern>
  </defs>

  <rect width="800" height="600" fill="url(#microDots)" opacity=".48"/>

  <g stroke="#786681" stroke-width="1.15" opacity=".22">
    <path d="M34 63 171 132 274 54 397 120 542 47 751 138"/>
    <path d="M19 245 135 193 254 265 386 187 533 271 777 211"/>
    <path d="M72 404 196 316 337 386 460 320 607 408 760 342"/>
    <path d="M102 23 188 186 137 338 251 495"/>
    <path d="M337 22 305 154 397 258 365 421"/>
    <path d="M559 21 521 155 603 305 548 481"/>
    <path d="M690 43 640 177 720 302 680 474"/>
    <circle cx="171" cy="132" r="4.2" fill="#806D88"/>
    <circle cx="274" cy="54" r="4.2" fill="#806D88"/>
    <circle cx="397" cy="120" r="4.2" fill="#806D88"/>
    <circle cx="254" cy="265" r="4.2" fill="#806D88"/>
    <circle cx="386" cy="187" r="4.2" fill="#806D88"/>
    <circle cx="460" cy="320" r="4.2" fill="#806D88"/>
    <circle cx="607" cy="408" r="4.2" fill="#806D88"/>
  </g>

  <g transform="translate(482 52)">
    <circle cx="151" cy="184" r="164" stroke="#796482" stroke-width="1.4" stroke-dasharray="4 7" opacity=".42"/>
    <circle cx="151" cy="184" r="151" fill="url(#lensFill)" stroke="#7B6684" stroke-width="2.4"/>
    <circle cx="151" cy="184" r="140" stroke="#FAF6F5" stroke-width="5.5" opacity=".72"/>
    <circle cx="151" cy="184" r="129" stroke="#8B7593" stroke-width="1.35" opacity=".5"/>
    <circle cx="151" cy="184" r="116" fill="url(#apertureGlow)" stroke="#F9F4F4" stroke-width="2.2" opacity=".92"/>
    <g transform="translate(151 184)" fill="#F8F2F3" stroke="#8C7796" stroke-width=".8" opacity=".75">
      <path d="M0 0 0-115A115 115 0 0 1 81.3-81.3Z"/>
      <path d="M0 0 81.3-81.3A115 115 0 0 1 115 0Z" opacity=".83"/>
      <path d="M0 0 115 0A115 115 0 0 1 81.3 81.3Z" opacity=".64"/>
      <path d="M0 0 81.3 81.3A115 115 0 0 1 0 115Z" opacity=".42"/>
      <path d="M0 0 0 115A115 115 0 0 1-81.3 81.3Z" opacity=".48"/>
      <path d="M0 0-81.3 81.3A115 115 0 0 1-115 0Z" opacity=".58"/>
      <path d="M0 0-115 0A115 115 0 0 1-81.3-81.3Z" opacity=".67"/>
      <path d="M0 0-81.3-81.3A115 115 0 0 1 0-115Z" opacity=".86"/>
    </g>
    <circle cx="151" cy="184" r="51" fill="#EEE6EB" stroke="#765F81" stroke-width="2.2"/>
    <circle cx="151" cy="184" r="39" fill="#F9F5F4" fill-opacity=".46" stroke="#A692AF" stroke-width="1"/>
    <path d="M70 78a131 131 0 0 1 161 5" stroke="#FFF" stroke-width="5" stroke-linecap="round" opacity=".45"/>
    <g fill="#75627F" opacity=".55">
      <circle cx="151" cy="5" r="3.5"/><circle cx="151" cy="363" r="3.5"/><circle cx="-28" cy="184" r="3.5"/><circle cx="330" cy="184" r="3.5"/>
    </g>
  </g>

  <g>
    <g transform="translate(49 68)">
      <rect width="276" height="101" rx="19" fill="#FFFCF9" fill-opacity=".88" stroke="#B6A7BC" stroke-opacity=".62"/>
      <circle cx="52" cy="50.5" r="30" fill="#AE9BB6"/>
      <circle cx="52" cy="50.5" r="27" stroke="#FFF9F6" stroke-opacity=".55"/>
      <path d="M37 68V42l15-10 15 10v26M43 68V50h18v18M39 45h26M52 32V25" stroke="#FFF9F6" stroke-width="2.4" stroke-linecap="round" stroke-linejoin="round"/>
      <path d="M99 35h112M99 52h91M99 69h61" stroke="#806B89" stroke-width="6" stroke-linecap="round" opacity=".6"/>
      <g fill="#8D7896"><circle cx="218" cy="78" r="4.5"/><circle cx="233" cy="78" r="4.5"/><circle cx="248" cy="78" r="4.5"/><circle cx="263" cy="78" r="4.5"/></g>
    </g>
    <g transform="translate(29 188)">
      <rect width="264" height="101" rx="19" fill="#FFFCF9" fill-opacity=".9" stroke="#B6A7BC" stroke-opacity=".62"/>
      <circle cx="52" cy="50.5" r="30" fill="#92A39A"/>
      <circle cx="52" cy="50.5" r="27" stroke="#FFF9F6" stroke-opacity=".5"/>
      <path d="M45 30h14v14h14v14H59v14H45V58H31V44h14Z" stroke="#FFF9F6" stroke-width="2.4" stroke-linejoin="round"/>
      <path d="M99 35h103M99 52h78M99 69h54" stroke="#806B89" stroke-width="6" stroke-linecap="round" opacity=".58"/>
      <g fill="#8D7896"><circle cx="207" cy="78" r="4.5"/><circle cx="222" cy="78" r="4.5"/><circle cx="237" cy="78" r="4.5"/><circle cx="252" cy="78" r="4.5"/></g>
    </g>
    <g transform="translate(57 308)">
      <rect width="254" height="101" rx="19" fill="#FFFCF9" fill-opacity=".9" stroke="#B6A7BC" stroke-opacity=".62"/>
      <circle cx="52" cy="50.5" r="30" fill="#C98069"/>
      <circle cx="52" cy="50.5" r="27" stroke="#FFF9F6" stroke-opacity=".5"/>
      <g stroke="#FFF9F6" stroke-width="2.4"><circle cx="42" cy="51" r="11"/><circle cx="63" cy="51" r="11"/><path d="M53 48h-1M31 47l-7-4M74 47l7-4" stroke-linecap="round"/></g>
      <path d="M99 35h102M99 52h82M99 69h57" stroke="#806B89" stroke-width="6" stroke-linecap="round" opacity=".58"/>
      <g fill="#8D7896"><circle cx="197" cy="78" r="4.5"/><circle cx="212" cy="78" r="4.5"/><circle cx="227" cy="78" r="4.5"/><circle cx="242" cy="78" r="4.5"/></g>
    </g>
  </g>

  <path d="M319 508c28-39 76-49 100-89 22-36-5-68 4-105 8-34 34-51 67-61" stroke="#F7F1F5" stroke-width="10" stroke-linecap="round" opacity=".55"/>
  <path d="M319 508c28-39 76-49 100-89 22-36-5-68 4-105 8-34 34-51 67-61" stroke="url(#routeStroke)" stroke-width="4.2" stroke-linecap="round"/>
  <path d="M362 462c31-12 50-27 57-43" stroke="#7F698A" stroke-width="1.2" stroke-dasharray="4 7" opacity=".7"/>
  <g fill="#8A7495" stroke="#F0E7EE" stroke-width="2"><circle cx="360" cy="462" r="8"/><circle cx="419" cy="419" r="8"/><circle cx="423" cy="314" r="8"/><circle cx="490" cy="253" r="8"/></g>

  <g>
    <path d="M365 243c0-45 36-81 81-81s81 36 81 81c0 62-81 139-81 139s-81-77-81-139Z" fill="url(#pinFill)" stroke="#60496D" stroke-width="2.4"/>
    <path d="M382 238c0-34 23-60 55-64" stroke="#C6B5CD" stroke-width="5" stroke-linecap="round" opacity=".45"/>
    <circle cx="446" cy="242" r="31" fill="#F7F2F3" stroke="#624C6F" stroke-width="2.5"/>
    <circle cx="446" cy="242" r="22" fill="#EDE4E9" stroke="#B7A7BE" stroke-width="1"/>
  </g>

  <ellipse cx="446" cy="391" rx="53" ry="20" stroke="#7A6386" stroke-width="1.2" opacity=".35"/>
  <ellipse cx="446" cy="391" rx="31" ry="11" stroke="#7A6386" stroke-width="1.2" opacity=".28"/>
</svg>
